<svg xmlns="http://www.w3.org/2000/svg" width="500" height="500" viewBox="0 0 500 500">
  <defs>
    <style>
      .cls-1 {
        fill: #41b883;
      }

      .cls-1, .cls-2, .cls-3 {
        fill-rule: evenodd;
      }

      .cls-2 {
        fill: #ffc107;
      }

      .cls-3 {
        fill: #2092ed;
      }

      .cls-4 {
        fill: #ff3e00;
      }

      .cls-5 {
        font-size: 191.667px;
        fill: #fff;
        text-anchor: middle;
        font-family: STHupo;
      }
    </style>
  </defs>
  <path id="矩形_1" data-name="矩形 1" class="cls-1" d="M178.592,57.644L436.98,165.512a10,10,0,0,1,5.376,13.08L334.488,436.98a10,10,0,0,1-13.08,5.376L63.02,334.488a10,10,0,0,1-5.376-13.08L165.512,63.02A10,10,0,0,1,178.592,57.644Z"/>
  <path id="矩形_1-2" data-name="矩形 1" class="cls-2" d="M255.83,44.941l199.144,196.75a10,10,0,0,1,.085,14.139L258.309,454.974a10,10,0,0,1-14.139.085L45.026,258.309a10,10,0,0,1-.085-14.139L241.691,45.026A10,10,0,0,1,255.83,44.941Z"/>
  <path id="矩形_1-3" data-name="矩形 1" class="cls-3" d="M333.359,62.528L442.8,320.253a10,10,0,0,1-5.3,13.113L179.781,442.809a10,10,0,0,1-13.113-5.3L57.225,179.788a10,10,0,0,1,5.3-13.113L320.245,57.232A10,10,0,0,1,333.359,62.528Z"/>
  <rect id="矩形_1-4" data-name="矩形 1" class="cls-4" x="90" y="90" width="300" height="300" rx="10" ry="10"/>
  <text id="CN" class="cls-5" x="243" y="302"><tspan x="243">CN</tspan></text>
</svg>
